<?xml version="1.0" standalone="no"?><!DOCTYPE svg PUBLIC "-//W3C//DTD SVG 1.1//EN" "http://www.w3.org/Graphics/SVG/1.1/DTD/svg11.dtd"><svg t="1539744127562" class="icon" style="" viewBox="0 0 1024 1024" version="1.1" xmlns="http://www.w3.org/2000/svg" p-id="1923" xmlns:xlink="http://www.w3.org/1999/xlink" width="64" height="64"><defs><style type="text/css"></style></defs><path d="M489.6 73.6c-118.4 0-233.6 46.4-316.8 131.2C88 288 41.6 403.2 41.6 521.6c0 248 200 448 448 448s448-200 448-448-200-448-448-448m188.8 636.8c-11.2 11.2-33.6 11.2-44.8 0l-144-144-144 144c-11.2 11.2-33.6 11.2-44.8 0-11.2-11.2-11.2-33.6 0-44.8l144-144-144-144c-11.2-11.2-11.2-33.6 0-44.8 11.2-11.2 33.6-11.2 44.8 0l144 144 144-144c11.2-11.2 33.6-11.2 44.8 0 11.2 11.2 11.2 33.6 0 44.8l-144 144 144 144c14.4 11.2 14.4 32 0 44.8" p-id="1924" fill="#dbdbdb"></path></svg>